<svg width="20" height="27" viewBox="0 0 20 27" fill="none" xmlns="http://www.w3.org/2000/svg">
<path d="M18.2205 11.2231V13.6675C18.2205 15.9366 17.3191 18.1127 15.7146 19.7172C14.1101 21.3217 11.934 22.2231 9.66493 22.2231M9.66493 22.2231C7.39586 22.2231 5.21972 21.3217 3.61524 19.7172C2.01076 18.1127 1.10938 15.9366 1.10938 13.6675V11.2231M9.66493 22.2231V25.8898M9.66493 1.44531C8.69247 1.44531 7.75984 1.83162 7.07221 2.51925C6.38457 3.20689 5.99826 4.13952 5.99826 5.11198V13.6675C5.99826 14.64 6.38457 15.5726 7.07221 16.2603C7.75984 16.9479 8.69247 17.3342 9.66493 17.3342C10.6374 17.3342 11.57 16.9479 12.2577 16.2603C12.9453 15.5726 13.3316 14.64 13.3316 13.6675V5.11198C13.3316 4.13952 12.9453 3.20689 12.2577 2.51925C11.57 1.83162 10.6374 1.44531 9.66493 1.44531Z" stroke="#18181B" stroke-width="2" stroke-linecap="round" stroke-linejoin="round"/>
</svg>
