<svg width="16" height="16" viewBox="0 0 16 16" fill="none" xmlns="http://www.w3.org/2000/svg">
<path d="M14.2948 7.36645L8.16816 13.4931C7.4176 14.2437 6.39962 14.6653 5.33816 14.6653C4.27671 14.6653 3.25872 14.2437 2.50816 13.4931C1.7576 12.7425 1.33594 11.7246 1.33594 10.6631C1.33594 9.60166 1.7576 8.58367 2.50816 7.83311L8.2215 2.11978C8.72187 1.61852 9.40088 1.33656 10.1091 1.33594C10.8174 1.33531 11.4969 1.61607 11.9982 2.11645C12.4994 2.61682 12.7814 3.29583 12.782 4.00409C12.7826 4.71235 12.5019 5.39185 12.0015 5.89311L6.27483 11.6064C6.02464 11.8566 5.68531 11.9972 5.3315 11.9972C4.97768 11.9972 4.63835 11.8566 4.38816 11.6064C4.13797 11.3563 3.99742 11.0169 3.99742 10.6631C3.99742 10.3093 4.13797 9.96997 4.38816 9.71978L10.0482 4.06645" stroke="#18181B" stroke-width="1.33" stroke-linecap="round" stroke-linejoin="round"/>
</svg>
