<svg width="12" height="16" viewBox="0 0 12 16" fill="none" xmlns="http://www.w3.org/2000/svg">
<path d="M6.0026 11.332V14.6654M1.33594 11.332H10.6693V10.1587C10.6691 9.91064 10.5998 9.66754 10.4691 9.45673C10.3384 9.24592 10.1514 9.07575 9.92927 8.96536L8.7426 8.36536C8.52046 8.25498 8.33352 8.08481 8.20279 7.874C8.07206 7.66319 8.00274 7.42009 8.0026 7.17203V3.9987H8.66927C9.02289 3.9987 9.36203 3.85822 9.61208 3.60817C9.86213 3.35813 10.0026 3.01899 10.0026 2.66536C10.0026 2.31174 9.86213 1.9726 9.61208 1.72256C9.36203 1.47251 9.02289 1.33203 8.66927 1.33203H3.33594C2.98232 1.33203 2.64318 1.47251 2.39313 1.72256C2.14308 1.9726 2.0026 2.31174 2.0026 2.66536C2.0026 3.01899 2.14308 3.35813 2.39313 3.60817C2.64318 3.85822 2.98232 3.9987 3.33594 3.9987H4.0026V7.17203C4.00247 7.42009 3.93315 7.66319 3.80242 7.874C3.67169 8.08481 3.48475 8.25498 3.2626 8.36536L2.07594 8.96536C1.8538 9.07575 1.66685 9.24592 1.53612 9.45673C1.4054 9.66754 1.33607 9.91064 1.33594 10.1587V11.332Z" stroke="#71717A" stroke-width="1.33" stroke-linecap="round" stroke-linejoin="round"/>
</svg>
