<svg width="16" height="16" viewBox="0 0 16 16" fill="none" xmlns="http://www.w3.org/2000/svg">
<path d="M12.0026 13.332C12.0026 12.2712 11.5812 11.2538 10.831 10.5036C10.0809 9.75346 9.06347 9.33203 8.0026 9.33203M8.0026 9.33203C6.94174 9.33203 5.92432 9.75346 5.17418 10.5036C4.42403 11.2538 4.0026 12.2712 4.0026 13.332M8.0026 9.33203C9.47536 9.33203 10.6693 8.13812 10.6693 6.66536C10.6693 5.19261 9.47536 3.9987 8.0026 3.9987C6.52984 3.9987 5.33594 5.19261 5.33594 6.66536C5.33594 8.13812 6.52984 9.33203 8.0026 9.33203ZM14.6693 7.9987C14.6693 11.6806 11.6845 14.6654 8.0026 14.6654C4.32071 14.6654 1.33594 11.6806 1.33594 7.9987C1.33594 4.3168 4.32071 1.33203 8.0026 1.33203C11.6845 1.33203 14.6693 4.3168 14.6693 7.9987Z" stroke="#18181B" stroke-width="1.33" stroke-linecap="round" stroke-linejoin="round"/>
</svg>
