<svg width="16" height="16" viewBox="0 0 16 16" fill="none" xmlns="http://www.w3.org/2000/svg">
<path d="M1.33594 1.33203L14.6693 14.6654M8.0026 11.332V14.6654M6.0026 5.9987V7.17203C6.00247 7.42009 5.93315 7.66319 5.80242 7.874C5.67169 8.08481 5.48475 8.25498 5.2626 8.36536L4.07594 8.96536C3.8538 9.07575 3.66685 9.24592 3.53612 9.45673C3.4054 9.66754 3.33607 9.91064 3.33594 10.1587V11.332H11.3359M10.0026 6.22536V3.9987H10.6693C11.0229 3.9987 11.362 3.85822 11.6121 3.60817C11.8621 3.35813 12.0026 3.01899 12.0026 2.66536C12.0026 2.31174 11.8621 1.9726 11.6121 1.72256C11.362 1.47251 11.0229 1.33203 10.6693 1.33203H5.26261" stroke="#18181B" stroke-width="1.33" stroke-linecap="round" stroke-linejoin="round"/>
</svg>
